<svg xmlns="http://www.w3.org/2000/svg" viewBox="0 0 400 400" width="400" height="400">
  <!-- Background: white -->
  <rect width="400" height="400" fill="#ffffff"/>

  <!-- Sweep lines — same paths, dark ink color -->
  <path d="M 48 358 C 58 218 178 128 285 128" fill="none" stroke="#1A1F36" stroke-width="1.8" stroke-linecap="round" opacity="0.10"/>
  <path d="M 58 342 C 68 210 186 126 285 128" fill="none" stroke="#1A1F36" stroke-width="1.8" stroke-linecap="round" opacity="0.17"/>
  <path d="M 70 324 C 80 202 194 124 285 128" fill="none" stroke="#1A1F36" stroke-width="1.8" stroke-linecap="round" opacity="0.25"/>
  <path d="M 84 304 C 94 194 202 122 285 128" fill="none" stroke="#1A1F36" stroke-width="1.8" stroke-linecap="round" opacity="0.34"/>
  <path d="M 100 282 C 110 186 212 120 285 128" fill="none" stroke="#1A1F36" stroke-width="1.8" stroke-linecap="round" opacity="0.45"/>
  <path d="M 120 260 C 130 178 222 118 285 128" fill="none" stroke="#1A1F36" stroke-width="1.8" stroke-linecap="round" opacity="0.58"/>
  <path d="M 143 240 C 153 170 234 116 285 128" fill="none" stroke="#1A1F36" stroke-width="1.8" stroke-linecap="round" opacity="0.72"/>
  <path d="M 170 222 C 180 162 248 114 285 128" fill="none" stroke="#1A1F36" stroke-width="1.8" stroke-linecap="round" opacity="0.88"/>

  <!-- Dot: Signal Blue glow + white core with ink border -->
  <circle cx="285" cy="128" r="16" fill="#3B82F6" opacity="0.25"/>
  <circle cx="285" cy="128" r="9"  fill="#3B82F6"/>
</svg>
